<svg width="30" height="26" viewBox="0 0 30 26" fill="none" xmlns="http://www.w3.org/2000/svg">
<path d="M12.9167 0H10.8333C9.45312 0 8.33333 1.0918 8.33333 2.4375V8.125C8.33333 9.91758 9.82812 11.375 11.6667 11.375H18.3333C20.1719 11.375 21.6667 9.91758 21.6667 8.125V2.4375C21.6667 1.0918 20.5469 0 19.1667 0H17.0833V4.0625C17.0833 4.50938 16.7083 4.875 16.25 4.875H13.75C13.2917 4.875 12.9167 4.50938 12.9167 4.0625V0ZM3.33333 13C1.49479 13 0 14.4574 0 16.25V22.75C0 24.5426 1.49479 26 3.33333 26H11.6667C13.5052 26 15 24.5426 15 22.75V16.25C15 14.4574 13.5052 13 11.6667 13H9.58333V17.0625C9.58333 17.5094 9.20833 17.875 8.75 17.875H6.25C5.79167 17.875 5.41667 17.5094 5.41667 17.0625V13H3.33333ZM18.3333 26H26.6667C28.5052 26 30 24.5426 30 22.75V16.25C30 14.4574 28.5052 13 26.6667 13H24.5833V17.0625C24.5833 17.5094 24.2083 17.875 23.75 17.875H21.25C20.7917 17.875 20.4167 17.5094 20.4167 17.0625V13H18.3333C17.5521 13 16.8333 13.259 16.2656 13.7008C16.5208 14.2289 16.6667 14.818 16.6667 15.4375V23.5625C16.6667 24.182 16.5208 24.7711 16.2656 25.2992C16.8333 25.741 17.5521 26 18.3333 26Z" fill="#4F56ED"/>
</svg>
