<svg width="200" height="77" viewBox="0 0 200 77" fill="none" xmlns="http://www.w3.org/2000/svg">
<path d="M19.8375 70.1208L44.6677 45.5422C48.5832 41.6663 48.5832 35.3337 44.6677 31.4578L19.8375 6.87921C13.5927 0.697614 3.00067 5.12785 3.00067 13.9213V63.0785C3.00067 71.8722 13.5927 76.3022 19.8375 70.1208Z" stroke="#4F56ED" stroke-width="6"/>
<path d="M47.6599 6.87921L22.8297 31.4578C18.9142 35.3337 18.9142 41.6663 22.8297 45.5422L47.6599 70.1208C53.9047 76.3024 64.4967 71.8722 64.4967 63.0787V13.9213C64.4967 5.12785 53.9045 0.697614 47.6599 6.87921Z" stroke="#4F56ED" stroke-width="6"/>
<path d="M93.0566 55V23.5H98.8166L113.622 45.685V23.5H119.382V55H113.622L98.8166 32.86V55H93.0566ZM133.723 55.54C130.933 55.54 128.773 54.67 127.243 52.93C125.743 51.19 124.993 48.64 124.993 45.28V32.68H130.708V44.74C130.708 46.66 131.098 48.13 131.878 49.15C132.658 50.17 133.888 50.68 135.568 50.68C137.158 50.68 138.463 50.11 139.483 48.97C140.533 47.83 141.058 46.24 141.058 44.2V32.68H146.818V55H141.733L141.283 51.22C140.593 52.54 139.588 53.59 138.268 54.37C136.978 55.15 135.463 55.54 133.723 55.54ZM158.761 55L150.571 32.68H156.601L162.271 49.555L167.941 32.68H173.971L165.736 55H158.761ZM183.634 55L175.444 32.68H181.474L187.144 49.555L192.814 32.68H198.844L190.609 55H183.634Z" fill="#03030B"/>
</svg>
