<svg width="101" height="40" viewBox="0 0 101 40" fill="none" xmlns="http://www.w3.org/2000/svg">
<path d="M10.4184 35.3104L22.8335 23.0211C24.7913 21.0831 24.7913 17.9169 22.8335 15.9789L10.4184 3.68961C7.29601 0.598807 2 2.81392 2 7.21064V31.7893C2 36.1861 7.29601 38.4011 10.4184 35.3104Z" stroke="white" stroke-width="3"/>
<path d="M24.3296 3.68961L11.9145 15.9789C9.95673 17.9169 9.95673 21.0831 11.9145 23.0211L24.3296 35.3104C27.452 38.4012 32.748 36.1861 32.748 31.7894V7.21064C32.748 2.81392 27.4519 0.598807 24.3296 3.68961Z" stroke="white" stroke-width="3"/>
<path d="M47.03 22V6.25H49.91L57.3125 17.3425V6.25H60.1925V22H57.3125L49.91 10.93V22H47.03ZM67.3633 22.27C65.9683 22.27 64.8883 21.835 64.1233 20.965C63.3733 20.095 62.9983 18.82 62.9983 17.14V10.84H65.8558V16.87C65.8558 17.83 66.0508 18.565 66.4408 19.075C66.8308 19.585 67.4458 19.84 68.2858 19.84C69.0808 19.84 69.7333 19.555 70.2433 18.985C70.7683 18.415 71.0308 17.62 71.0308 16.6V10.84H73.9108V22H71.3683L71.1433 20.11C70.7983 20.77 70.2958 21.295 69.6358 21.685C68.9908 22.075 68.2333 22.27 67.3633 22.27ZM79.8823 22L75.7873 10.84H78.8023L81.6373 19.2775L84.4723 10.84H87.4873L83.3698 22H79.8823ZM92.3188 22L88.2238 10.84H91.2388L94.0738 19.2775L96.9088 10.84H99.9238L95.8063 22H92.3188Z" fill="white"/>
<path d="M62.5768 35.25L65.6488 26.85H67.3768L70.4488 35.25H68.8168L68.1448 33.306H64.8688L64.1848 35.25H62.5768ZM65.2888 32.106H67.7248L66.5008 28.614L65.2888 32.106ZM73.9496 35.394C73.3896 35.394 72.8896 35.258 72.4496 34.986C72.0096 34.714 71.6616 34.342 71.4056 33.87C71.1496 33.398 71.0216 32.862 71.0216 32.262C71.0216 31.662 71.1496 31.13 71.4056 30.666C71.6616 30.194 72.0096 29.826 72.4496 29.562C72.8896 29.29 73.3896 29.154 73.9496 29.154C74.3976 29.154 74.7896 29.238 75.1256 29.406C75.4616 29.574 75.7336 29.81 75.9416 30.114V26.61H77.4776V35.25H76.1096L75.9416 34.398C75.7496 34.662 75.4936 34.894 75.1736 35.094C74.8616 35.294 74.4536 35.394 73.9496 35.394ZM74.2736 34.05C74.7696 34.05 75.1736 33.886 75.4856 33.558C75.8056 33.222 75.9656 32.794 75.9656 32.274C75.9656 31.754 75.8056 31.33 75.4856 31.002C75.1736 30.666 74.7696 30.498 74.2736 30.498C73.7856 30.498 73.3816 30.662 73.0616 30.99C72.7416 31.318 72.5816 31.742 72.5816 32.262C72.5816 32.782 72.7416 33.21 73.0616 33.546C73.3816 33.882 73.7856 34.05 74.2736 34.05ZM79.0417 35.25V29.298H80.3977L80.5297 30.102C80.7217 29.814 80.9737 29.586 81.2857 29.418C81.6057 29.242 81.9737 29.154 82.3897 29.154C83.3097 29.154 83.9617 29.51 84.3457 30.222C84.5617 29.894 84.8497 29.634 85.2097 29.442C85.5777 29.25 85.9777 29.154 86.4097 29.154C87.1857 29.154 87.7817 29.386 88.1977 29.85C88.6137 30.314 88.8217 30.994 88.8217 31.89V35.25H87.2857V32.034C87.2857 31.522 87.1857 31.13 86.9857 30.858C86.7937 30.586 86.4937 30.45 86.0857 30.45C85.6697 30.45 85.3337 30.602 85.0777 30.906C84.8297 31.21 84.7057 31.634 84.7057 32.178V35.25H83.1697V32.034C83.1697 31.522 83.0697 31.13 82.8697 30.858C82.6697 30.586 82.3617 30.45 81.9457 30.45C81.5377 30.45 81.2057 30.602 80.9497 30.906C80.7017 31.21 80.5777 31.634 80.5777 32.178V35.25H79.0417ZM91.108 28.374C90.828 28.374 90.596 28.29 90.412 28.122C90.236 27.954 90.148 27.742 90.148 27.486C90.148 27.23 90.236 27.022 90.412 26.862C90.596 26.694 90.828 26.61 91.108 26.61C91.388 26.61 91.616 26.694 91.792 26.862C91.976 27.022 92.068 27.23 92.068 27.486C92.068 27.742 91.976 27.954 91.792 28.122C91.616 28.29 91.388 28.374 91.108 28.374ZM90.34 35.25V29.298H91.876V35.25H90.34ZM93.4792 35.25V29.298H94.8352L94.9552 30.306C95.1392 29.954 95.4032 29.674 95.7472 29.466C96.0992 29.258 96.5112 29.154 96.9832 29.154C97.7192 29.154 98.2912 29.386 98.6992 29.85C99.1072 30.314 99.3112 30.994 99.3112 31.89V35.25H97.7752V32.034C97.7752 31.522 97.6712 31.13 97.4632 30.858C97.2552 30.586 96.9312 30.45 96.4912 30.45C96.0592 30.45 95.7032 30.602 95.4232 30.906C95.1512 31.21 95.0152 31.634 95.0152 32.178V35.25H93.4792Z" fill="#DBDCF8"/>
</svg>
