<svg width="27" height="23" viewBox="0 0 27 23" fill="none" xmlns="http://www.w3.org/2000/svg">
<path d="M17.5501 0C15.542 0 13.9155 1.6082 13.9155 3.59375V17.25C13.9155 17.3084 13.9246 17.3623 13.9337 17.4162L1.57471 21.5895C1.18853 21.6928 0.956821 22.0881 1.06586 22.4699C1.1749 22.8518 1.57016 23.0809 1.95634 22.973L16.8278 18.1305C16.9095 20.8348 19.1539 23 21.9117 23C24.724 23 27.0001 20.7494 27.0001 17.9688C27.0001 15.1881 24.724 12.9375 21.9117 12.9375C19.5855 12.9375 17.6228 14.4828 17.0186 16.5896L16.9959 16.5941L15.3694 17.0299V3.59375C15.3694 2.40332 16.3462 1.4375 17.5501 1.4375H26.2732C26.673 1.4375 27.0001 1.11406 27.0001 0.71875C27.0001 0.323437 26.673 0 26.2732 0H17.5501ZM21.9117 14.375C22.8756 14.375 23.8001 14.7536 24.4817 15.4276C25.1634 16.1015 25.5463 17.0156 25.5463 17.9688C25.5463 18.9219 25.1634 19.836 24.4817 20.5099C23.8001 21.1839 22.8756 21.5625 21.9117 21.5625C20.9477 21.5625 20.0232 21.1839 19.3416 20.5099C18.66 19.836 18.2771 18.9219 18.2771 17.9688C18.2771 17.0156 18.66 16.1015 19.3416 15.4276C20.0232 14.7536 20.9477 14.375 21.9117 14.375ZM2.81891 8.58906L3.47769 11.0193C3.63216 11.5943 4.23187 11.9357 4.81341 11.783L6.92148 11.226C7.50302 11.0732 7.84831 10.4803 7.69384 9.90527L7.03507 7.475L8.43894 7.10215L10.3198 14.0426L3.29596 15.9023L1.41504 8.95742L2.81891 8.58457V8.58906ZM4.22278 8.21621L5.62665 7.84336L6.19456 9.92773L4.79069 10.3006L4.22733 8.21621H4.22278ZM1.03795 7.56934C0.261052 7.77598 -0.197818 8.56211 0.0111719 9.33027L1.89209 16.2752C2.10108 17.0434 2.89615 17.4971 3.67305 17.2904L10.6924 15.4307C11.4693 15.224 11.9282 14.4379 11.7192 13.6697L9.84281 6.7248C9.63382 5.95664 8.83874 5.50293 8.06184 5.70957L1.03795 7.56934Z" fill="white"/>
</svg>
