<svg width="20" height="23" viewBox="0 0 20 23" fill="none" xmlns="http://www.w3.org/2000/svg">
<path d="M14.2857 5.75C14.2857 5.18367 14.1749 4.62289 13.9595 4.09968C13.7441 3.57646 13.4284 3.10105 13.0305 2.7006C12.6325 2.30015 12.16 1.98249 11.6401 1.76577C11.1201 1.54905 10.5628 1.4375 10 1.4375C9.43719 1.4375 8.8799 1.54905 8.35993 1.76577C7.83996 1.98249 7.36751 2.30015 6.96954 2.7006C6.57158 3.10105 6.25589 3.57646 6.04052 4.09968C5.82514 4.62289 5.71429 5.18367 5.71429 5.75C5.71429 6.31633 5.82514 6.87711 6.04052 7.40032C6.25589 7.92354 6.57158 8.39894 6.96954 8.7994C7.36751 9.19985 7.83996 9.51751 8.35993 9.73423C8.8799 9.95095 9.43719 10.0625 10 10.0625C10.5628 10.0625 11.1201 9.95095 11.6401 9.73423C12.16 9.51751 12.6325 9.19985 13.0305 8.7994C13.4284 8.39894 13.7441 7.92354 13.9595 7.40032C14.1749 6.87711 14.2857 6.31633 14.2857 5.75ZM4.28571 5.75C4.28571 4.22501 4.88775 2.76247 5.95939 1.68414C7.03103 0.605802 8.48448 0 10 0C11.5155 0 12.969 0.605802 14.0406 1.68414C15.1122 2.76247 15.7143 4.22501 15.7143 5.75C15.7143 7.27499 15.1122 8.73753 14.0406 9.81586C12.969 10.8942 11.5155 11.5 10 11.5C8.48448 11.5 7.03103 10.8942 5.95939 9.81586C4.88775 8.73753 4.28571 7.27499 4.28571 5.75ZM1.42857 21.5625H18.5714C18.5179 17.9822 15.6161 15.0938 12.0402 15.0938H7.95982C4.38839 15.0938 1.48661 17.9822 1.42857 21.5625ZM0 21.6658C0 17.241 3.5625 13.6562 7.95982 13.6562H12.0402C16.4375 13.6562 20 17.241 20 21.6658C20 22.4025 19.4062 23 18.6741 23H1.32589C0.59375 23 0 22.4025 0 21.6658Z" fill="white"/>
</svg>
