<svg width="22" height="24" viewBox="0 0 22 24" fill="none" xmlns="http://www.w3.org/2000/svg">
<path d="M12.9643 0.625H9.03571H5.18571C3.9433 0.625 2.81875 1.38164 2.31295 2.55469L0.270089 7.30781C0.0933036 7.72422 0 8.17109 0 8.62813V20.125C0 21.9176 1.40937 23.375 3.14286 23.375H18.8571C20.5906 23.375 22 21.9176 22 20.125V8.62813C22 8.17109 21.9067 7.72422 21.7299 7.30781L19.6871 2.55469C19.1812 1.38164 18.0567 0.625 16.8143 0.625H12.9643ZM14.1429 7.125L13.2589 2.25H16.8143C17.433 2.25 17.9978 2.62578 18.2482 3.21484L19.9277 7.125H14.9286H14.1429ZM12.542 7.125H9.45804L10.342 2.25H11.6629L12.5469 7.125H12.542ZM12.5714 8.75V12H9.42857V8.75H12.5714ZM7.85714 8.75V12C7.85714 12.8988 8.55937 13.625 9.42857 13.625H12.5714C13.4406 13.625 14.1429 12.8988 14.1429 12V8.75H14.9286H20.4286V20.125C20.4286 21.0238 19.7263 21.75 18.8571 21.75H3.14286C2.27366 21.75 1.57143 21.0238 1.57143 20.125V8.75H7.07143H7.85714ZM7.85714 7.125H7.07143H2.06741L3.74688 3.21484C3.99732 2.62578 4.56205 2.25 5.1808 2.25H8.74107L7.85714 7.125Z" fill="white"/>
</svg>
