<svg width="22" height="24" viewBox="0 0 22 24" fill="none" xmlns="http://www.w3.org/2000/svg">
<path fill-rule="evenodd" clip-rule="evenodd" d="M14.6684 1.36187C17.0846 -1.02993 21.1792 0.686548 21.1792 4.08372V19.3629C21.1792 22.7601 17.0846 24.4765 14.6684 22.0847L10.8721 18.3269L7.07581 22.0848L6.54819 21.5517L7.0758 22.0848C4.65957 24.4765 0.564941 22.7601 0.564941 19.3629V4.08374C0.564941 0.68656 4.65956 -1.0299 7.07581 1.3619L10.8721 5.1197L14.6684 1.36188C14.6684 1.36188 14.6684 1.36187 14.6684 1.36187ZM9.80598 6.175L6.02056 2.42794L6.54508 1.89806L6.02056 2.42794C4.55477 0.976986 2.06494 2.01455 2.06494 4.08374V19.3629C2.06494 21.4321 4.55477 22.4696 6.02056 21.0187L9.806 17.2716L6.95062 14.4452L7.47825 13.9122L6.95062 14.4452C5.4371 12.947 5.4371 10.4996 6.95062 9.00143L7.47825 9.53445L6.95062 9.00143L9.80598 6.175ZM10.8721 16.2163L8.00587 13.3791C7.08535 12.4679 7.08535 10.9787 8.00587 10.0675L10.8721 7.2303L13.7383 10.0675C14.6588 10.9787 14.6588 12.468 13.7383 13.3792L10.8721 16.2163ZM11.9382 17.2716L14.7936 14.4452L14.2659 13.9122L14.7936 14.4452C16.3071 12.947 16.3071 10.4997 14.7936 9.00146L14.2659 9.53448L14.7936 9.00145L11.9382 6.175L15.7236 2.42792L15.7236 2.4279C17.1894 0.976974 19.6792 2.01452 19.6792 4.08372V19.3629C19.6792 21.4321 17.1894 22.4696 15.7236 21.0187L15.196 21.5517L15.7236 21.0187L11.9382 17.2716Z" fill="white"/>
</svg>
