<svg width="20" height="24" viewBox="0 0 20 24" fill="none" xmlns="http://www.w3.org/2000/svg">
<path d="M19.7902 6.52969C20.067 6.23907 20.067 5.76094 19.7902 5.47032L15.5045 0.970319C15.2277 0.679694 14.7723 0.679694 14.4955 0.970319C14.2188 1.26094 14.2188 1.73907 14.4955 2.02969L17.5625 5.25001H0.714286C0.321429 5.25001 0 5.58751 0 6.00001C0 6.41251 0.321429 6.75001 0.714286 6.75001H17.5625L14.4955 9.97032C14.2188 10.2609 14.2188 10.7391 14.4955 11.0297C14.7723 11.3203 15.2277 11.3203 15.5045 11.0297L19.7902 6.52969ZM4.49554 23.0297C4.77232 23.3203 5.22768 23.3203 5.50446 23.0297C5.78125 22.7391 5.78125 22.2609 5.50446 21.9703L2.4375 18.75H19.2857C19.6786 18.75 20 18.4125 20 18C20 17.5875 19.6786 17.25 19.2857 17.25H2.4375L5.50446 14.0297C5.78125 13.7391 5.78125 13.2609 5.50446 12.9703C5.22768 12.6797 4.77232 12.6797 4.49554 12.9703L0.209821 17.4703C-0.0669643 17.7609 -0.0669643 18.2391 0.209821 18.5297L4.49554 23.0297Z" fill="white"/>
</svg>
