<svg width="12" height="12" viewBox="0 0 12 12" fill="#494761" xmlns="http://www.w3.org/2000/svg">
<path d="M9.375 6.75C9.16875 6.75 9 6.91875 9 7.125V10.5C9 10.9141 8.66414 11.25 8.25 11.25H1.5C1.08586 11.25 0.75 10.9141 0.75 10.5V3.75C0.75 3.33586 1.08586 3 1.5 3H4.125C4.33125 3 4.5 2.83125 4.5 2.625C4.5 2.41875 4.33125 2.25 4.125 2.25H1.5C0.671484 2.25 0 2.92148 0 3.75V10.5C0 11.3285 0.671484 12 1.5 12H8.25C9.07852 12 9.75 11.3285 9.75 10.5V7.125C9.75 6.91875 9.58125 6.75 9.375 6.75ZM11.625 0H7.875C7.66875 0 7.5 0.167719 7.5 0.375C7.5 0.582281 7.66875 0.75 7.875 0.75H10.7203L4.23516 7.23516C4.08867 7.38164 4.08867 7.61906 4.23516 7.76531C4.30781 7.8375 4.40391 7.875 4.5 7.875C4.59609 7.875 4.69191 7.83839 4.76508 7.76513L11.25 1.28039V4.125C11.25 4.33125 11.4187 4.5 11.625 4.5C11.8313 4.5 12 4.33125 12 4.125V0.375C12 0.167719 11.8313 0 11.625 0Z" />
</svg>
