<svg width="20" height="18" viewBox="0 0 20 18" fill="#494761" xmlns="http://www.w3.org/2000/svg">
<path d="M20 9C20 8.62187 19.6696 8.3125 19.2589 8.3125H2.4156L8.69685 1.89726C8.97171 1.61663 8.9493 1.1814 8.64694 0.926598C8.50444 0.810152 8.32587 0.749996 8.14729 0.749996C7.94618 0.749996 7.74511 0.825191 7.59908 0.975582L0.192833 8.53808C-0.0639523 8.79993 -0.0639523 9.20023 0.192833 9.46191L7.59908 17.0244C7.87542 17.3064 8.34417 17.3252 8.64596 17.0714C8.94832 16.8163 8.97073 16.3813 8.69587 16.1008L2.4156 9.6875H19.2593C19.6696 9.6875 20 9.37812 20 9Z" />
</svg>
