<svg width="14" height="16" viewBox="0 0 14 16" fill="none" xmlns="http://www.w3.org/2000/svg">
<path d="M12.9999 2.66666H10.9333C10.6143 1.11572 9.24997 0.002 7.66656 0H6.33322C4.74981 0.002 3.3855 1.11572 3.06656 2.66666H0.999908C0.631721 2.66666 0.333252 2.96513 0.333252 3.33331C0.333252 3.7015 0.631721 4 0.999908 4H1.66656V12.6667C1.66878 14.5067 3.15988 15.9978 4.99991 16H8.99991C10.8399 15.9978 12.331 14.5067 12.3333 12.6667V4H12.9999C13.3681 4 13.6666 3.70153 13.6666 3.33334C13.6666 2.96516 13.3681 2.66666 12.9999 2.66666ZM6.33325 11.3333C6.33325 11.7015 6.03478 12 5.66659 12C5.29838 12 4.99991 11.7015 4.99991 11.3333V7.33334C4.99991 6.96516 5.29838 6.66669 5.66656 6.66669C6.03475 6.66669 6.33322 6.96516 6.33322 7.33334V11.3333H6.33325ZM8.99991 11.3333C8.99991 11.7015 8.70144 12 8.33325 12C7.96506 12 7.6666 11.7015 7.6666 11.3333V7.33334C7.6666 6.96516 7.96506 6.66669 8.33325 6.66669C8.70144 6.66669 8.99991 6.96516 8.99991 7.33334V11.3333ZM4.44725 2.66666C4.73081 1.86819 5.48594 1.33434 6.33325 1.33331H7.6666C8.51391 1.33434 9.26903 1.86819 9.5526 2.66666H4.44725Z" fill="#EB5757"/>
</svg>
