<svg width="13" height="12" viewBox="0 0 13 12" fill="#494761" xmlns="http://www.w3.org/2000/svg">
<path d="M6.06687 0.750979C6.25927 0.417385 6.74073 0.417384 6.93313 0.750978L8.47851 3.43047C8.54939 3.55335 8.66913 3.64035 8.80791 3.66978L11.8338 4.31153C12.2105 4.39142 12.3593 4.84931 12.1015 5.13538L10.0307 7.43314C9.93572 7.53852 9.88999 7.67929 9.90488 7.82036L10.2296 10.8965C10.27 11.2794 9.88052 11.5624 9.52878 11.4056L6.70357 10.1462C6.574 10.0885 6.426 10.0885 6.29643 10.1462L3.47122 11.4056C3.11948 11.5624 2.72998 11.2794 2.7704 10.8965L3.09512 7.82036C3.11001 7.67929 3.06428 7.53852 2.9693 7.43314L0.898513 5.13538C0.640701 4.84931 0.789477 4.39142 1.1662 4.31153L4.19209 3.66978C4.33087 3.64035 4.45061 3.55335 4.52148 3.43047L6.06687 0.750979Z" />
</svg>
