<svg width="56" height="55" viewBox="0 0 56 55" fill="none" xmlns="http://www.w3.org/2000/svg">
<path d="M20.9995 12.6042C20.9995 10.7021 22.5628 9.16667 24.4995 9.16667C26.4361 9.16667 27.9995 10.7021 27.9995 12.6042C27.9995 14.5063 26.4361 16.0417 24.4995 16.0417C22.5628 16.0417 20.9995 14.5063 20.9995 12.6042ZM55.9995 11.4583V25.2083C55.9995 31.5333 50.7728 36.6667 44.3328 36.6667H23.3328C16.8928 36.6667 11.6661 31.5333 11.6661 25.2083V11.4583C11.6661 5.13333 16.8928 0 23.3328 0H44.3328C50.7728 0 55.9995 5.13333 55.9995 11.4583ZM16.3328 25.2083C16.3328 26.9729 17.0095 28.5771 18.1295 29.8146L30.3561 17.8063C32.6428 15.5604 36.6328 15.5604 38.9195 17.8063L41.3461 20.1896C41.8828 20.7167 42.7928 20.7167 43.3295 20.1896L51.3328 12.3292V11.4583C51.3328 7.67708 48.1828 4.58333 44.3328 4.58333H23.3328C19.4828 4.58333 16.3328 7.67708 16.3328 11.4583V25.2083ZM51.3328 25.2083V18.8146L46.6195 23.4438C44.3328 25.6896 40.3428 25.6896 38.0561 23.4438L35.6295 21.0604C35.0928 20.5333 34.2061 20.5333 33.6461 21.0604L22.4695 32.0375C22.7495 32.0833 23.0295 32.0833 23.3328 32.0833H44.3328C48.1828 32.0833 51.3328 28.9896 51.3328 25.2083ZM42.2095 41.3417C40.9728 40.9979 39.6895 41.7313 39.3395 42.9458L38.6628 45.375C38.1728 47.1396 37.0061 48.6292 35.3728 49.5229C33.7395 50.4396 31.8495 50.6688 30.0528 50.1875L9.79948 44.7333C6.06614 43.725 3.87281 39.9438 4.89948 36.2771L7.13948 28.1188C7.46614 26.9042 6.74281 25.6438 5.50614 25.3C4.26948 24.9792 2.98614 25.6896 2.63614 26.9042L0.419476 35.0396C-1.28386 41.1354 2.37948 47.4604 8.58614 49.1333L28.8395 54.5875C29.8661 54.8625 30.9161 55 31.9428 55C33.9495 55 35.9095 54.4958 37.7061 53.4875C40.4128 51.975 42.3495 49.5229 43.1895 46.5667L43.8661 44.1375C44.2161 42.9229 43.4695 41.6625 42.2328 41.3188L42.2095 41.3417Z" fill="#4F56ED"/>
</svg>
